<?xml version="1.0" encoding="utf-8"?>
<!-- Generator: Adobe Illustrator 16.0.0, SVG Export Plug-In . SVG Version: 6.00 Build 0)  -->
<!DOCTYPE svg PUBLIC "-//W3C//DTD SVG 1.1//EN" "http://www.w3.org/Graphics/SVG/1.1/DTD/svg11.dtd">
<svg version="1.1" id="Layer_1" xmlns="http://www.w3.org/2000/svg" xmlns:xlink="http://www.w3.org/1999/xlink" x="0px" y="0px"
	 width="640px" height="480px" viewBox="0 0 640 480" enable-background="new 0 0 640 480" xml:space="preserve">
<g>
	<path d="M394.605,29.978c22.625,0,37.305,18.651,37.305,37.303c0,37.304-65.28,37.304-93.26,37.304
		C338.65,48.629,372.504,29.978,394.605,29.978z M394.605,2c-37.302,0-83.932,37.303-83.932,130.562c9.326,0,9.326,0,65.281,0
		c27.978,0,83.933-18.651,83.933-65.281C459.888,39.303,441.235,2,394.605,2z M245.394,2c-46.63,0-65.281,37.303-65.281,65.28
		c0,46.63,55.955,65.281,83.933,65.281c55.955,0,55.955,0,65.28,0C329.325,39.303,282.696,2,245.394,2z M245.394,29.978
		c22.102,0,55.955,18.651,55.955,74.606c-27.978,0-93.259,0-93.259-37.304C208.09,48.629,222.769,29.978,245.394,29.978z
		 M506.516,319.078H338.65v149.214h149.215c18.65,0,18.65,0,18.65-18.652V319.078z M301.349,132.562H96.18v37.304h37.304v111.909
		h167.865V132.562z M301.349,319.078H133.483V449.64c0,18.652,0,18.652,18.651,18.652h149.214V319.078z M543.82,132.562H338.65
		v149.213h167.865V169.865h37.305V132.562z"/>
</g>
</svg>
