<?xml version="1.0" encoding="utf-8"?>
<!-- Generator: Adobe Illustrator 16.0.0, SVG Export Plug-In . SVG Version: 6.00 Build 0)  -->
<!DOCTYPE svg PUBLIC "-//W3C//DTD SVG 1.1//EN" "http://www.w3.org/Graphics/SVG/1.1/DTD/svg11.dtd">
<svg version="1.1" id="Layer_1" xmlns="http://www.w3.org/2000/svg" xmlns:xlink="http://www.w3.org/1999/xlink" x="0px" y="0px"
	 width="640px" height="480px" viewBox="0 0 640 480" enable-background="new 0 0 640 480" xml:space="preserve">
<path d="M167.854,188.886c0-31.086,25.108-56.792,56.793-56.792c31.087,0,56.793,25.108,56.793,56.792
	c0,31.088-25.109,56.793-56.793,56.793S167.854,219.974,167.854,188.886z M371.111,173.941c0-29.892,24.512-54.402,54.404-54.402
	c29.891,0,54.402,24.511,54.402,54.402c0,29.891-24.512,54.402-54.402,54.402C395.623,228.344,371.111,203.833,371.111,173.941z
	 M398.613,173.941c0,14.945,11.957,26.902,26.902,26.902s26.902-11.958,26.902-26.902c0-14.945-11.957-26.903-26.902-26.903
	S398.613,158.996,398.613,173.941z M594.699,390.354c0,8.369-6.576,14.945-14.945,14.945H314.321
	c0,19.729-1.197,36.467-2.392,46.629c-0.598,5.98-5.979,10.762-11.956,10.762h-75.327h-75.325c-6.577,0-11.359-4.781-11.957-10.762
	c-1.195-10.162-2.391-27.5-2.391-46.629H60.246c-8.369,0-14.946-6.576-14.946-14.945c0-8.371,6.577-14.945,14.946-14.945h76.521
	c5.38-53.207,25.108-111.195,87.879-111.195c62.772,0,83.098,57.988,87.881,111.195h26.304c0-34.676,5.978-78.914,30.489-105.814
	c14.346-16.141,33.479-23.914,56.793-23.914s41.85,8.371,56.793,23.914c23.912,26.9,29.893,70.543,30.49,105.814h66.955
	C588.123,374.811,594.699,381.982,594.699,390.354z M365.732,374.811h118.969c0-29.295-4.783-66.357-23.316-87.283
	c-8.967-10.162-20.924-14.945-36.467-14.945c-14.945,0-26.9,4.783-36.467,14.945C370.518,308.453,366.332,345.516,365.732,374.811z
	 M378.287,59.757c-2.393,5.978-11.955,29.293-56.194,59.782l0,0h-1.196c-44.836-31.684-52.608-55-54.999-60.979
	c-3.588-10.761-1.197-23.314,7.174-31.683c5.979-5.979,13.152-8.37,19.728-9.566c3.587,0,20.923,0,29.294,15.544l0,0l0,0l0,0l0,0
	l0,0l0,0c8.368-15.544,25.706-15.544,29.292-15.544c7.176,0,14.348,3.588,19.727,9.566
	C379.484,37.638,381.875,48.997,378.287,59.757z"/>
</svg>
