<?xml version="1.0" encoding="utf-8"?>
<!-- Generator: Adobe Illustrator 16.0.0, SVG Export Plug-In . SVG Version: 6.00 Build 0)  -->
<!DOCTYPE svg PUBLIC "-//W3C//DTD SVG 1.1//EN" "http://www.w3.org/Graphics/SVG/1.1/DTD/svg11.dtd">
<svg version="1.1" id="Layer_1" xmlns="http://www.w3.org/2000/svg" xmlns:xlink="http://www.w3.org/1999/xlink" x="0px" y="0px"
	 width="382px" height="252px" viewBox="0 0 382 252" enable-background="new 0 0 382 252" xml:space="preserve">
<g>
	<path d="M186.222,176.218l-1.497-0.686L95.873,135.08v37.157c0,16.475,40.451,40.962,90.349,40.962
		c49.896,0,90.349-24.493,90.349-40.962V135.08L186.222,176.218z"/>
	<polygon points="186.222,3 9.1,83.638 186.222,164.268 363.329,83.638 	"/>
	<path d="M360.139,148.667l-0.014-0.882c3.735-2.371,6.604-6.968,6.604-11.746c0-6.688-4.358-12.516-10.983-13.566V83.638h-3.519
		v39.053c-6.191,1.497-11.334,6.675-11.334,12.915c0,4.778,1.812,8.941,5.548,11.312l-0.378,1.742l-13.104,54.5h19.975H372.9
		L360.139,148.667z"/>
</g>
</svg>
