<?xml version="1.0" encoding="utf-8"?>
<!-- Generator: Adobe Illustrator 16.0.0, SVG Export Plug-In . SVG Version: 6.00 Build 0)  -->
<!DOCTYPE svg PUBLIC "-//W3C//DTD SVG 1.1//EN" "http://www.w3.org/Graphics/SVG/1.1/DTD/svg11.dtd">
<svg version="1.1" id="Layer_1" xmlns="http://www.w3.org/2000/svg" xmlns:xlink="http://www.w3.org/1999/xlink" x="0px" y="0px"
	 width="390px" height="322px" viewBox="110.5 55.5 390 322" enable-background="new 110.5 55.5 390 322" xml:space="preserve">
<path d="M428.141,130.582h-49.967c0.008-0.322,0.051-0.637,0.051-0.964v-19.196c0-16.965-13.752-30.72-30.721-30.72H263.5
	c-16.965,0-30.72,13.755-30.72,30.72v19.196c0,0.327,0.039,0.642,0.05,0.964h-49.97c-16.965,0-30.72,13.755-30.72,30.72v161.276
	c0,16.965,13.755,30.72,30.72,30.72h63.36h118.56h63.361c16.969,0,30.719-13.755,30.719-30.72V161.302
	C458.859,144.337,445.109,130.582,428.141,130.582z M263.5,110.422h84v19.196h-84V110.422z M182.86,322.578V161.302h32.64v161.276
	H182.86L182.86,322.578z M246.22,322.578V161.302h118.56v161.276H246.22L246.22,322.578z M428.141,322.578H395.5V161.302h32.641
	V322.578z"/>
</svg>
