<?xml version="1.0" encoding="utf-8"?>
<!-- Generator: Adobe Illustrator 16.0.0, SVG Export Plug-In . SVG Version: 6.00 Build 0)  -->
<!DOCTYPE svg PUBLIC "-//W3C//DTD SVG 1.1//EN" "http://www.w3.org/Graphics/SVG/1.1/DTD/svg11.dtd">
<svg version="1.1" id="Layer_1" xmlns="http://www.w3.org/2000/svg" xmlns:xlink="http://www.w3.org/1999/xlink" x="0px" y="0px"
	 width="640px" height="480px" viewBox="0 0 640 480" enable-background="new 0 0 640 480" xml:space="preserve">
<path d="M499.699,21.5c0.074,1.481,0.218,2.961,0.218,4.442c0.008,83.122,0.008,166.245,0.008,249.366c0,1.468,0,2.936,0,4.817
	c-37.853,0-75.4,0-113.501,0c0,13.525,0,26.655,0,40.047c-44.355,0-88.156,0-132.538,0c0-13.068,0-26.194,0-39.725
	c-38.122,0-75.675,0-113.811,0c0-86.589,0-172.769,0-258.948C259.952,21.5,379.825,21.5,499.699,21.5z M151.677,32.701
	c0,78.912,0,157.343,0,235.898c112.413,0,224.547,0,336.786,0c0-78.794,0-157.213,0-235.898
	C376.133,32.701,264.103,32.701,151.677,32.701z M374.678,280.608c-36.812,0-73.109,0-109.33,0c0,9.732,0,19.14,0,28.547
	c36.634,0,72.924,0,109.33,0C374.678,299.491,374.678,290.178,374.678,280.608z"/>
<path d="M137.512,417.711c6.01-13.388,12.046-26.763,18.017-40.162c5.861-13.147,11.719-26.299,17.424-39.512
	c1.027-2.378,2.234-3.283,4.899-3.283c94.867,0.074,189.734,0.078,284.598-0.022c3.057-0.003,4.063,1.433,5.083,3.755
	c10.918,24.865,21.888,49.715,32.866,74.555c0.579,1.312,1.389,2.522,2.09,3.777c0,0.893,0,1.785,0,2.678
	c-1.772-0.097-3.545-0.271-5.321-0.271c-117.37-0.014-234.738-0.018-352.108-0.004c-2.517,0-5.029,0.178-7.547,0.274
	C137.512,418.898,137.512,418.307,137.512,417.711z M154.596,407.677c110.571,0,220.581,0,331.053,0
	c-8.85-20.107-17.455-39.804-26.3-59.389c-0.539-1.193-3.005-2.146-4.577-2.146c-89.807-0.104-179.618-0.079-269.426-0.157
	c-2.878-0.004-4.128,1.068-5.199,3.593c-4.338,10.247-8.893,20.403-13.383,30.586C162.766,389.22,158.751,398.278,154.596,407.677z"
	/>
<path d="M140.19,442.698c0-3.379,0-6.763,0-10.364c120.073,0,239.716,0,359.621,0c0,3.618,0,6.994,0,10.364
	C379.936,442.698,260.063,442.698,140.19,442.698z"/>
<path d="M468.259,53.078c0,65.328,0,130.251,0,195.435c-98.87,0-197.526,0-296.518,0c0-65.18,0-130.181,0-195.435
	C270.572,53.078,369.229,53.078,468.259,53.078z"/>
</svg>
