<?xml version="1.0" encoding="utf-8"?>
<!-- Generator: Adobe Illustrator 19.1.0, SVG Export Plug-In . SVG Version: 6.00 Build 0)  -->
<svg version="1.1" id="Layer_1" xmlns="http://www.w3.org/2000/svg" xmlns:xlink="http://www.w3.org/1999/xlink" x="0px" y="0px"
	 width="400px" height="372px" viewBox="173 650 400 372" style="enable-background:new 173 650 400 372;" xml:space="preserve">
<path d="M203.1,969.8c-1.6,2.4-1.6,5.3-0.4,7.7c0.2,1.2,0.5,2.3,1.2,3.3c13.5,19.7,33.5,29.2,61.2,29.2c28.8,0,49.1-10,62.1-30.7
	c1.6-2.6,1.5-5.8-0.1-8.2c-0.2-1.1-0.5-2.2-1.2-3.2l-37.1-54.8c-0.7-1-1.6-1.7-2.5-2.3c6.4-13.1,9.1-38,9.5-66.9
	c0.1-0.6,0.3-1.1,0.3-1.7c0-0.5-0.2-1-0.3-1.5c0.6-60.2-8.3-136.1-14.3-158.7c-0.9-3.4-3.9-5.7-7.4-5.7l-17.8-0.1
	c-3.2-0.1-6.6,2.3-7.5,5.7c-5.9,22.6-14.9,98.5-14.3,158.8c-0.1,0.5-0.3,1-0.3,1.5c0,0.6,0.2,1.1,0.3,1.7c0.4,29.5,3.3,54.9,10,67.8
	c-1.8,0.4-3.5,1.4-4.6,3.1L203.1,969.8z M311.9,974.5c-10.1,13.7-25.1,20.2-46.8,20.2c-21.6,0-36.1-6.3-46.7-20.2l34.5-51
	c0.7-1.1,1-2.2,1.2-3.4c0.3,0,0.5,0.1,0.8,0.1h20.7c0.2,0.5,0.3,1.1,0.7,1.6L311.9,974.5z M272.6,904.9h-14.4
	c-3.2-5.5-7-21.5-7.8-54.8h30.1C279.6,883.4,275.8,899.4,272.6,904.9z M262.5,691.7l5.6,0c5.2,24.4,10.3,73.1,11.8,116
	c0.4,9.9,0.5,18.7,0.5,26.9h-30.4c0-8.2,0.2-17.1,0.5-27C252.3,764.9,257.3,716.1,262.5,691.7z"/>
<path d="M401.6,695.7c-0.2-0.7-0.6-1.4-1-2c-1-1.5-1.9-2.9-2.8-4.2c-6.5-10.1-12.6-19.6-36.5-19.6c-25,0-31.2,10.3-37.8,21.2
	c-0.7,1.2-1.5,2.5-2.3,3.8c-1.6,2.5-1.5,5.6,0,8c0.1,0.5,0.1,1,0.3,1.5l18.9,43.3c0.6,1.3,1.4,2.2,2.5,3
	c-11.8,41.9-2.5,210.4,7.1,253.3c0.8,3.5,3.9,6,7.5,6h7.6c3.6,0,6.7-2.5,7.5-6c9.6-43.2,19-213.4,6.8-254c1.5-0.8,2.8-2,3.6-3.7
	l18.9-43.3c0.8-1.7,0.8-3.7,0.3-5.4L401.6,695.7z M369.5,801.5h-16.4c0.5-20.7,1.8-37.1,4.1-45.5h8.2
	C367.7,764.4,369,780.9,369.5,801.5z M361.3,978.3c-5.3-41.2-8.8-110.1-8.5-161.4h16.9C370.2,868.3,366.7,937.1,361.3,978.3z
	 M369,740.2c-0.1,0.2,0,0.4-0.1,0.5h-14.7l-17.9-41c0.1-0.2,0.3-0.5,0.4-0.7c5.9-9.7,8.3-13.8,24.6-13.8c15.5,0,17.9,3.7,23.6,12.5
	c0.5,0.8,1,1.5,1.5,2.3L369,740.2z"/>
<path d="M458.7,675.9c-0.8-3.5-3.9-6-7.5-6h-7.6c-3.6,0-6.7,2.5-7.5,6c-10.3,46.4-19.4,206.4-5.8,239.8c-2.3,7.5-9.8,34.9-3.8,53.3
	c6.1,18.8,13.7,34,14,34.6c1.3,2.7,4,4.2,6.9,4.2c0.2,0,0.4,0,0.6,0c3,0.2,6-1.3,7.4-4.2c0.3-0.6,7.9-15.8,14-34.6
	c6.6-20.2-3.1-51.3-4.3-55C477.8,877.3,468.9,721.6,458.7,675.9z M439.2,867.1h16.4c-0.6,17.8-1.9,31.9-4.1,39.6h-8.3
	C441.1,899,439.8,884.9,439.2,867.1z M447.4,700.8c5.5,39.9,9,103.7,8.5,151h-17.1C438.4,804.5,441.9,740.7,447.4,700.8z
	 M454.9,964.3c-2.2,6.8-4.7,13.2-6.9,18.5c-2.2-5.3-4.6-11.6-6.9-18.5c-3.6-11,0-29.6,2.8-40.2h8.2
	C454.9,934.7,458.5,953.3,454.9,964.3z"/>
<path d="M512.8,997.6c0.8,3.5,3.9,6,7.5,6h7.6c3.6,0,6.7-2.5,7.5-6c5.8-26.2,11.9-223.8,5.7-252.3c-0.1-1-0.5-1.9-1-2.7
	c0.5-0.8,0.9-1.6,1.1-2.5c0.2-0.8,4.5-19.9-0.1-35.8c-4.2-14.5-9.5-26.2-9.7-26.7c-1.3-3-4.3-4.6-7.4-4.5c-3.1-0.1-6,1.5-7.4,4.5
	c-0.2,0.5-5.5,12.2-9.7,26.7c-4.6,15.9-0.3,35-0.1,35.8c0.2,0.9,0.6,1.8,1.1,2.5c0,0-0.1,0.1-0.1,0.1
	C500.4,756.8,506.8,970.3,512.8,997.6z M521.9,736.6c-1-4.4-3-18-0.1-28c0.8-2.6,1.5-5,2.3-7.4c0.8,2.4,1.6,4.8,2.3,7.4
	c3.5,12-0.1,27.8-0.1,28c-0.2,0.7-0.1,1.3,0,2h-4.3C522,738,522,737.3,521.9,736.6z M521.2,754l5.9,0c0.5,5.7,0.8,15.5,1,28h-7.9
	C520.3,769.5,520.7,759.7,521.2,754z M524.1,957.5c-2.7-43.8-4.2-113.4-4.1-160.1h8.1C528.3,844.1,526.8,913.6,524.1,957.5z"/>
</svg>
