<?xml version="1.0" encoding="utf-8"?>
<!-- Generator: Adobe Illustrator 16.0.0, SVG Export Plug-In . SVG Version: 6.00 Build 0)  -->
<!DOCTYPE svg PUBLIC "-//W3C//DTD SVG 1.1//EN" "http://www.w3.org/Graphics/SVG/1.1/DTD/svg11.dtd">
<svg version="1.1" id="Layer_1" xmlns="http://www.w3.org/2000/svg" xmlns:xlink="http://www.w3.org/1999/xlink" x="0px" y="0px"
	 width="400px" height="372px" viewBox="320.5 121.5 400 372" enable-background="new 320.5 121.5 400 372" xml:space="preserve">
<path d="M342.395,437.004c-1.61,2.378-1.598,5.29-0.399,7.692c0.153,1.155,0.491,2.305,1.198,3.337
	c13.517,19.673,33.546,29.239,61.219,29.239c28.804,0,49.128-10.027,62.141-30.652c1.635-2.587,1.475-5.751-0.055-8.172
	c-0.154-1.124-0.498-2.23-1.174-3.231l-37.092-54.823c-0.67-0.995-1.561-1.714-2.531-2.279c6.384-13.148,9.105-37.995,9.542-66.859
	c0.129-0.565,0.344-1.1,0.344-1.695c0-0.541-0.202-1.014-0.307-1.524c0.553-60.229-8.344-136.071-14.279-158.662
	c-0.885-3.367-3.92-5.72-7.397-5.732l-17.768-0.092c-3.201-0.086-6.574,2.347-7.465,5.726
	c-5.948,22.604-14.862,98.501-14.31,158.755c-0.104,0.51-0.307,0.989-0.307,1.53c0,0.608,0.209,1.143,0.344,1.701
	c0.442,29.547,3.269,54.934,9.984,67.818c-1.8,0.424-3.465,1.449-4.583,3.108L342.395,437.004z M451.181,441.711
	c-10.119,13.694-25.062,20.201-46.769,20.201c-21.59,0-36.096-6.31-46.688-20.158l34.486-50.965
	c0.719-1.069,1.044-2.249,1.173-3.446c0.252,0.024,0.504,0.079,0.762,0.079h20.699c0.209,0.528,0.332,1.082,0.657,1.573
	L451.181,441.711z M411.871,372.062h-14.42c-3.219-5.499-6.998-21.504-7.827-54.829h30.074
	C418.863,350.559,415.097,366.563,411.871,372.062z M401.856,158.933l5.622,0.031c5.247,24.373,10.285,73.12,11.846,116.017
	c0.362,9.861,0.51,18.745,0.528,26.892H389.47c0.019-8.165,0.172-17.062,0.535-26.954
	C391.565,232.059,396.615,183.337,401.856,158.933z"/>
<path d="M540.907,162.927c-0.228-0.707-0.559-1.376-0.977-1.985c-1.014-1.474-1.93-2.9-2.808-4.245
	c-6.501-10.064-12.645-19.562-36.483-19.562c-24.963,0-31.175,10.297-37.755,21.19c-0.731,1.216-1.499,2.482-2.322,3.791
	c-1.604,2.543-1.456,5.634,0,8.048c0.11,0.498,0.117,1.008,0.325,1.493l18.911,43.328c0.554,1.259,1.432,2.249,2.458,3.017
	c-11.784,41.915-2.451,210.365,7.072,253.262c0.786,3.508,3.901,6.015,7.501,6.015h7.606c3.601,0,6.716-2.501,7.502-6.015
	c9.591-43.168,18.967-213.437,6.832-254.006c1.524-0.78,2.82-2.009,3.558-3.698l18.911-43.328c0.75-1.714,0.848-3.656,0.271-5.438
	L540.907,162.927z M508.842,268.757h-16.429c0.528-20.674,1.843-37.104,4.116-45.465h8.196
	C507.005,231.647,508.313,248.083,508.842,268.757z M500.634,445.526c-5.327-41.184-8.835-110.052-8.46-161.409h16.914
	C509.469,335.469,505.967,404.337,500.634,445.526z M508.258,207.415c-0.073,0.166-0.049,0.351-0.116,0.517h-14.666l-17.879-40.962
	c0.142-0.233,0.301-0.485,0.437-0.712c5.873-9.732,8.307-13.763,24.601-13.763c15.489,0,17.854,3.674,23.587,12.534
	c0.491,0.762,0.995,1.536,1.518,2.334L508.258,207.415z"/>
<path d="M598.022,143.155c-0.787-3.508-3.901-6.015-7.502-6.015h-7.601c-3.6,0-6.715,2.5-7.502,6.015
	c-10.31,46.418-19.378,206.45-5.824,239.812c-2.292,7.539-9.763,34.91-3.767,53.33c6.132,18.844,13.714,33.995,14.039,34.634
	c1.346,2.685,4.05,4.227,6.863,4.227c0.185,0,0.381-0.006,0.571-0.018c3.029,0.178,6.003-1.346,7.44-4.215
	c0.319-0.64,7.896-15.784,14.033-34.634c6.586-20.238-3.097-51.346-4.289-55.001C617.117,344.537,608.166,188.817,598.022,143.155z
	 M578.515,334.313h16.417c-0.59,17.75-1.898,31.918-4.073,39.598h-8.271C580.413,366.231,579.104,352.063,578.515,334.313z
	 M586.724,168.001c5.505,39.899,9.031,103.705,8.54,150.952h-17.074C577.691,271.706,581.219,207.907,586.724,168.001z
	 M594.17,431.542c-2.225,6.832-4.688,13.216-6.869,18.487c-2.181-5.266-4.645-11.648-6.869-18.487
	c-3.575-10.991-0.049-29.602,2.765-40.249h8.215C594.225,401.928,597.758,420.514,594.17,431.542z"/>
<path d="M652.126,464.849c0.786,3.509,3.901,6.016,7.502,6.016h7.606c3.601,0,6.722-2.501,7.502-6.016
	c5.812-26.204,11.882-223.838,5.701-252.254c-0.123-0.995-0.485-1.898-0.952-2.734c0.51-0.755,0.915-1.604,1.137-2.543
	c0.19-0.805,4.547-19.87-0.104-35.758c-4.227-14.506-9.48-26.18-9.701-26.665c-1.34-2.968-4.332-4.645-7.403-4.479
	c-3.06-0.147-6.04,1.511-7.379,4.479c-0.216,0.491-5.462,12.159-9.689,26.659c-4.645,15.895-0.295,34.959-0.11,35.764
	c0.215,0.922,0.608,1.757,1.105,2.507c-0.019,0.037-0.055,0.074-0.073,0.111C639.722,224.047,646.062,437.545,652.126,464.849z
	 M661.188,203.821c-1.026-4.381-3.035-17.953-0.11-27.974c0.756-2.593,1.548-5.044,2.341-7.404c0.792,2.359,1.591,4.817,2.347,7.416
	c3.502,11.968-0.08,27.808-0.116,27.974c-0.154,0.669-0.074,1.333-0.05,1.991h-4.35
	C661.274,205.161,661.349,204.497,661.188,203.821z M660.457,221.196l5.93,0.019c0.491,5.702,0.811,15.507,0.971,27.986h-7.871
	C659.646,236.71,659.966,226.898,660.457,221.196z M663.425,424.68c-2.69-43.832-4.19-113.412-4.055-160.125h8.098
	C667.609,311.268,666.11,380.842,663.425,424.68z"/>
</svg>
