<?xml version="1.0" encoding="utf-8"?>
<!-- Generator: Adobe Illustrator 16.0.0, SVG Export Plug-In . SVG Version: 6.00 Build 0)  -->
<!DOCTYPE svg PUBLIC "-//W3C//DTD SVG 1.1//EN" "http://www.w3.org/Graphics/SVG/1.1/DTD/svg11.dtd">
<svg version="1.1" id="Layer_1" xmlns="http://www.w3.org/2000/svg" xmlns:xlink="http://www.w3.org/1999/xlink" x="0px" y="0px"
	 width="640px" height="480px" viewBox="0 0 640 480" enable-background="new 0 0 640 480" xml:space="preserve">
<g>
	<path d="M319,5C189.766,5,85,109.761,85,239c0,129.228,104.766,234,234,234c129.234,0,234-104.772,234-234
		C553,109.761,448.234,5,319,5z M475.195,389.064l-9.117-9.111l-6.124,6.124l9.111,9.117
		c-11.527,11.077-24.237,20.933-37.993,29.264l-6.489-11.241l-7.509,4.334l6.482,11.227c-13.904,7.681-28.754,13.838-44.307,18.331
		l-3.354-12.509l-8.374,2.241l3.36,12.529c-11.979,2.938-24.339,4.867-37.003,5.728L319,425.33l-14.882,29.765
		c-12.664-0.862-25.029-2.79-37.006-5.727l3.356-12.529l-8.374-2.241l-3.352,12.509c-15.556-4.493-30.407-10.65-44.31-18.331
		l6.482-11.228l-7.507-4.333l-6.486,11.241c-13.75-8.331-26.465-18.187-37.992-29.265l9.116-9.116l-6.131-6.125l-9.116,9.112
		c-11.078-11.527-20.933-24.243-29.259-37.992l11.241-6.492l-4.333-7.507l-11.233,6.486c-7.674-13.908-13.839-28.754-18.331-44.312
		l12.505-3.352l-2.241-8.374l-12.519,3.356c-2.94-11.977-4.873-24.33-5.733-36.995l29.764-14.882l-29.769-14.882
		c0.862-12.665,2.794-25.029,5.738-37.005l12.519,3.355l2.241-8.373l-12.504-3.352c4.491-15.561,10.656-30.411,18.335-44.315
		l11.228,6.481l4.334-7.508l-11.242-6.491c8.326-13.75,18.178-26.46,29.255-37.987l9.121,9.121l6.131-6.13l-9.122-9.122
		c11.527-11.077,24.242-20.928,37.997-29.254l6.486,11.241l7.508-4.334l-6.482-11.232c13.904-7.674,28.753-13.838,44.31-18.336
		l3.351,12.504l8.374-2.241l-3.352-12.519c11.972-2.939,24.336-4.873,37-5.733L319,52.652l14.882-29.765
		c12.664,0.862,25.029,2.79,37,5.733l-3.355,12.519l8.371,2.242l3.356-12.504c15.553,4.498,30.401,10.662,44.307,18.336
		l-6.481,11.232l7.506,4.333l6.491-11.242c13.755,8.327,26.471,18.178,37.998,29.255l-9.116,9.122l6.125,6.13l9.122-9.121
		c11.071,11.527,20.929,24.237,29.254,37.993l-11.237,6.485l4.335,7.507l11.222-6.482c7.687,13.905,13.844,28.754,18.341,44.315
		l-12.51,3.352l2.242,8.372l12.523-3.355c2.939,11.977,4.867,24.341,5.729,37.005L505.33,239l29.765,14.882
		c-0.862,12.664-2.79,25.025-5.728,36.996l-12.524-3.356l-2.241,8.372l12.51,3.352c-4.497,15.562-10.655,30.405-18.336,44.313
		l-11.228-6.486l-4.333,7.509l11.241,6.49C496.128,364.826,486.276,377.543,475.195,389.064z"/>
	<path d="M352.189,183.224c-5.401-3.22-11.288-5.7-17.558-7.249L319,109l-15.627,66.975c-9.838,2.434-18.809,7.058-26.31,13.404
		L254,174l15.379,23.063c-6.346,7.501-10.976,16.469-13.409,26.31L189,239l66.97,15.627c1.549,6.27,4.034,12.161,7.254,17.558
		L189,369l96.814-74.219c5.402,3.22,11.289,5.704,17.555,7.253L319,368.997l15.632-66.972c9.836-2.438,18.804-7.062,26.301-13.408
		l23.068,15.379l-15.375-23.068c6.342-7.502,10.971-16.47,13.399-26.305L448.997,239l-66.978-15.627
		c-1.544-6.271-4.029-12.162-7.248-17.559l74.221-96.811L352.189,183.224z M268.929,264.74c-3.979-7.718-6.262-16.455-6.262-25.74
		c0-31.112,25.221-56.333,56.333-56.333c9.286,0,18.018,2.284,25.74,6.262L319,208.669c-16.754,0-30.331,13.577-30.331,30.331
		L268.929,264.74z M340.663,239c0,11.967-9.696,21.668-21.663,21.668s-21.663-9.701-21.663-21.668s9.697-21.663,21.663-21.663
		C330.967,217.337,340.663,227.033,340.663,239z M375.334,239c0,31.107-25.221,56.334-56.334,56.334
		c-9.286,0-18.018-2.285-25.74-6.263l25.74-19.74c16.75,0,30.331-13.581,30.331-30.331l19.74-25.74
		C373.049,220.982,375.334,229.714,375.334,239z"/>
	<circle cx="319" cy="239" r="13.002"/>
</g>
</svg>
