<?xml version="1.0" encoding="utf-8"?>
<!-- Generator: Adobe Illustrator 16.0.0, SVG Export Plug-In . SVG Version: 6.00 Build 0)  -->
<!DOCTYPE svg PUBLIC "-//W3C//DTD SVG 1.1//EN" "http://www.w3.org/Graphics/SVG/1.1/DTD/svg11.dtd">
<svg version="1.1" id="Layer_1" xmlns="http://www.w3.org/2000/svg" xmlns:xlink="http://www.w3.org/1999/xlink" x="0px" y="0px"
	 width="708.5px" height="678.5px" viewBox="0 0 708.5 678.5" enable-background="new 0 0 708.5 678.5" xml:space="preserve">
<g>
	<path d="M354.25,52.75c-158.229,0-286.5,128.266-286.5,286.5c0,158.221,128.271,286.5,286.5,286.5
		c158.23,0,286.5-128.279,286.5-286.5C640.75,181.016,512.48,52.75,354.25,52.75z M545.489,522.982l-11.164-11.155l-7.496,7.497
		l11.155,11.164c-14.114,13.562-29.677,25.629-46.519,35.828l-7.943-13.763l-9.194,5.308l7.937,13.744
		c-17.024,9.405-35.205,16.942-54.248,22.444l-4.106-15.315l-10.253,2.744l4.116,15.342c-14.668,3.596-29.801,5.958-45.306,7.012
		l-18.217-36.445l-18.221,36.442c-15.505-1.057-30.644-3.417-45.308-7.014l4.109-15.34l-10.253-2.743l-4.103,15.314
		c-19.046-5.501-37.229-13.04-54.251-22.442l7.936-13.748l-9.191-5.305l-7.942,13.763c-16.834-10.2-32.402-22.267-46.515-35.83
		l11.161-11.162l-7.506-7.498l-11.161,11.156c-13.563-14.112-25.63-29.682-35.823-46.516l13.763-7.949l-5.305-9.19l-13.753,7.94
		c-9.397-17.028-16.945-35.205-22.444-54.254l15.31-4.104l-2.744-10.253l-15.327,4.11c-3.6-14.665-5.966-29.789-7.02-45.296
		l36.442-18.221l-36.448-18.222c1.055-15.505,3.42-30.646,7.025-45.308l15.327,4.108l2.744-10.251l-15.309-4.103
		c5.498-19.052,13.046-37.235,22.448-54.258l13.747,7.936l5.307-9.192l-13.764-7.948c10.193-16.834,22.257-32.396,35.818-46.51
		l11.168,11.167l7.506-7.506l-11.168-11.168c14.113-13.562,29.681-25.623,46.521-35.817l7.942,13.764l9.193-5.307l-7.938-13.752
		c17.025-9.396,35.205-16.943,54.252-22.451l4.103,15.31l10.252-2.744l-4.104-15.328c14.658-3.598,29.797-5.966,45.301-7.019
		l18.221,36.441l18.221-36.443c15.505,1.055,30.645,3.416,45.301,7.021l-4.108,15.328l10.248,2.745l4.11-15.31
		c19.041,5.507,37.223,13.054,54.248,22.45l-7.937,13.752l9.19,5.306l7.947-13.764c16.842,10.195,32.41,22.257,46.522,35.819
		l-11.161,11.168l7.499,7.505l11.17-11.167c13.556,14.113,25.624,29.675,35.815,46.517l-13.758,7.939l5.309,9.191l13.739-7.936
		c9.411,17.025,16.951,35.205,22.456,54.258l-15.315,4.104l2.745,10.25l15.334-4.107c3.597,14.663,5.958,29.801,7.012,45.306
		l-36.451,18.226l36.442,18.221c-1.057,15.506-3.417,30.64-7.014,45.297l-15.335-4.11l-2.742,10.251l15.314,4.104
		c-5.506,19.054-13.046,37.226-22.448,54.255l-13.748-7.941l-5.305,9.194l13.764,7.946
		C571.118,493.307,559.057,508.877,545.489,522.982z"/>
	<path d="M394.885,270.96c-6.612-3.943-13.818-6.979-21.496-8.875l-19.139-82.002l-19.133,82.002
		c-12.045,2.98-23.028,8.641-32.213,16.411l-28.237-18.83l18.829,28.237c-7.769,9.185-13.438,20.165-16.417,32.213l-81.995,19.133
		l81.995,19.133c1.896,7.677,4.938,14.89,8.882,21.498l-90.877,118.536l118.536-90.871c6.613,3.943,13.822,6.984,21.495,8.881
		l19.137,81.986l19.138-81.998c12.045-2.985,23.023-8.646,32.203-16.416l28.244,18.829l-18.824-28.245
		c7.766-9.185,13.432-20.164,16.405-32.204l81.996-19.129l-82.005-19.134c-1.891-7.677-4.933-14.892-8.876-21.498l90.874-118.531
		L394.885,270.96z M292.945,370.766c-4.872-9.45-7.667-20.147-7.667-31.516c0-38.092,30.879-68.972,68.972-68.972
		c11.369,0,22.06,2.797,31.516,7.667l-31.516,24.169c-20.513,0-37.136,16.623-37.136,37.136L292.945,370.766z M380.773,339.25
		c0,14.652-11.871,26.529-26.523,26.529c-14.652,0-26.523-11.877-26.523-26.529s11.873-26.523,26.523-26.523
		C368.902,312.727,380.773,324.598,380.773,339.25z M423.224,339.25c0,38.087-30.88,68.974-68.974,68.974
		c-11.369,0-22.06-2.798-31.515-7.668l31.515-24.17c20.508,0,37.137-16.628,37.137-37.136l24.17-31.516
		C420.425,317.19,423.224,327.881,423.224,339.25z"/>
	<circle cx="354.25" cy="339.25" r="15.918"/>
</g>
</svg>
