<?xml version="1.0" encoding="utf-8"?>
<!-- Generator: Adobe Illustrator 16.0.0, SVG Export Plug-In . SVG Version: 6.00 Build 0)  -->
<!DOCTYPE svg PUBLIC "-//W3C//DTD SVG 1.1//EN" "http://www.w3.org/Graphics/SVG/1.1/DTD/svg11.dtd">
<svg version="1.1" id="Layer_1" xmlns="http://www.w3.org/2000/svg" xmlns:xlink="http://www.w3.org/1999/xlink" x="0px" y="0px"
	 width="640px" height="480px" viewBox="0 0 640 480" enable-background="new 0 0 640 480" xml:space="preserve">
<g>
	<path d="M320,48c-106.038,0-192,85.958-192,192c0,106.033,85.962,192,192,192c106.038,0,192-85.967,192-192
		C512,133.958,426.038,48,320,48z M448.16,363.13l-7.48-7.477l-5.026,5.026l7.477,7.48c-9.458,9.089-19.888,17.176-31.174,24.012
		l-5.325-9.224l-6.16,3.556l5.318,9.212c-11.408,6.302-23.593,11.354-36.354,15.041l-2.752-10.264l-6.871,1.839l2.758,10.28
		c-9.83,2.411-19.972,3.993-30.363,4.7L320,392.886l-12.211,24.423c-10.391-0.707-20.536-2.289-30.363-4.7l2.753-10.28l-6.87-1.839
		l-2.75,10.264c-12.764-3.687-24.949-8.739-36.357-15.041l5.319-9.212l-6.16-3.556l-5.322,9.224
		c-11.282-6.836-21.715-14.923-31.173-24.012l7.48-7.48l-5.03-5.026l-7.48,7.477c-9.089-9.458-17.176-19.892-24.007-31.173
		l9.224-5.326l-3.556-6.16l-9.216,5.322c-6.297-11.412-11.355-23.593-15.041-36.36l10.26-2.749l-1.839-6.871l-10.272,2.754
		c-2.412-9.826-3.998-19.964-4.704-30.355l24.422-12.211l-24.426-12.211c0.707-10.391,2.292-20.537,4.708-30.363l10.272,2.753
		l1.839-6.87l-10.26-2.75c3.686-12.768,8.744-24.952,15.045-36.361l9.212,5.318l3.556-6.16l-9.224-5.326
		c6.831-11.282,14.915-21.711,24.004-31.169l7.484,7.484l5.03-5.03l-7.484-7.484c9.458-9.089,19.891-17.172,31.177-24.004
		l5.322,9.224l6.16-3.556l-5.319-9.216c11.409-6.297,23.593-11.354,36.357-15.045l2.75,10.26l6.87-1.839l-2.75-10.272
		c9.823-2.412,19.968-3.998,30.359-4.704L320,87.099l12.211-24.422c10.391,0.707,20.537,2.289,30.359,4.704l-2.754,10.272
		l6.87,1.839l2.753-10.26c12.761,3.69,24.945,8.748,36.354,15.045l-5.318,9.216l6.159,3.556l5.326-9.224
		c11.286,6.832,21.72,14.915,31.178,24.004l-7.48,7.484l5.026,5.03l7.484-7.484c9.085,9.458,17.172,19.887,24.004,31.173
		l-9.221,5.322l3.557,6.159l9.208-5.318c6.306,11.409,11.358,23.593,15.049,36.361l-10.265,2.75l1.84,6.87l10.275-2.753
		c2.412,9.827,3.994,19.972,4.7,30.363L472.886,240l24.423,12.211c-0.707,10.391-2.289,20.533-4.7,30.355l-10.276-2.754l-1.839,6.87
		l10.264,2.749c-3.69,12.769-8.743,24.949-15.045,36.361l-9.212-5.322l-3.556,6.16l9.224,5.326
		C465.336,343.242,457.253,353.676,448.16,363.13z"/>
	<path d="M347.233,194.235c-4.432-2.642-9.263-4.677-14.407-5.948L320,133.333l-12.822,54.954
		c-8.072,1.997-15.433,5.791-21.588,10.998l-18.924-12.619l12.619,18.924c-5.207,6.155-9.005,13.513-11.002,21.588L213.333,240
		l54.95,12.822c1.271,5.145,3.31,9.979,5.952,14.407l-60.902,79.438l79.438-60.898c4.432,2.642,9.262,4.68,14.404,5.951L320,346.664
		l12.826-54.951c8.071-2,15.429-5.794,21.58-11.001l18.928,12.618l-12.615-18.928c5.203-6.155,9.002-13.513,10.994-21.584
		L426.664,240l-54.955-12.822c-1.267-5.146-3.306-9.98-5.947-14.408l60.898-79.434L347.233,194.235z M278.916,261.12
		c-3.264-6.332-5.138-13.501-5.138-21.12c0-25.528,20.694-46.222,46.222-46.222c7.619,0,14.784,1.874,21.12,5.138L320,215.113
		c-13.747,0-24.887,11.14-24.887,24.887L278.916,261.12z M337.775,240c0,9.818-7.957,17.779-17.775,17.779
		c-9.819,0-17.775-7.961-17.775-17.779c0-9.819,7.957-17.775,17.775-17.775C329.818,222.225,337.775,230.181,337.775,240z
		 M366.223,240c0,25.524-20.694,46.223-46.223,46.223c-7.619,0-14.784-1.875-21.12-5.139L320,264.887
		c13.743,0,24.887-11.144,24.887-24.887l16.197-21.12C364.348,225.216,366.223,232.381,366.223,240z"/>
	<circle cx="320" cy="240" r="10.668"/>
</g>
</svg>
