<?xml version="1.0" encoding="utf-8"?>
<!-- Generator: Adobe Illustrator 16.0.0, SVG Export Plug-In . SVG Version: 6.00 Build 0)  -->
<!DOCTYPE svg PUBLIC "-//W3C//DTD SVG 1.1//EN" "http://www.w3.org/Graphics/SVG/1.1/DTD/svg11.dtd">
<svg version="1.1" id="Layer_1" xmlns="http://www.w3.org/2000/svg" xmlns:xlink="http://www.w3.org/1999/xlink" x="0px" y="0px"
	 width="708.5px" height="678.5px" viewBox="-68.5 0 708.5 678.5" enable-background="new -68.5 0 708.5 678.5"
	 xml:space="preserve">
<g>
	<path d="M285.75,5c-184.462,0-334,149.531-334,334c0,184.453,149.538,334,334,334c184.464,0,334-149.547,334-334
		C619.75,154.531,470.214,5,285.75,5z M508.695,553.194l-13.014-13.005l-8.74,8.741l13.005,13.014
		c-16.454,15.812-34.596,29.878-54.23,41.769l-9.261-16.045l-10.719,6.187l9.253,16.024c-19.847,10.964-41.042,19.751-63.242,26.165
		l-4.787-17.855l-11.953,3.2l4.797,17.884c-17.099,4.193-34.74,6.947-52.816,8.175l-21.237-42.488l-21.242,42.484
		c-18.076-1.231-35.725-3.983-52.82-8.175l4.791-17.884l-11.953-3.198l-4.783,17.854c-22.204-6.413-43.401-15.202-63.245-26.164
		l9.251-16.027l-10.715-6.184l-9.258,16.045c-19.626-11.892-37.774-25.959-54.227-41.771l13.011-13.012l-8.75-8.742l-13.011,13.006
		c-15.812-16.452-29.879-34.603-41.763-54.228l16.045-9.267l-6.185-10.715l-16.033,9.258C3.909,468.389-4.89,447.198-11.302,424.991
		l17.849-4.784l-3.199-11.952l-17.868,4.791c-4.197-17.096-6.955-34.728-8.184-52.806l42.484-21.241l-42.491-21.243
		c1.23-18.076,3.988-35.726,8.19-52.819l17.868,4.789l3.199-11.95l-17.847-4.783c6.41-22.211,15.209-43.408,26.17-63.253
		l16.026,9.251l6.186-10.716l-16.046-9.265c11.883-19.626,25.947-37.768,41.757-54.222l13.02,13.019l8.751-8.75l-13.02-13.02
		c16.453-15.811,34.602-29.871,54.234-41.755l9.258,16.045l10.717-6.187l-9.253-16.032c19.847-10.954,41.041-19.752,63.246-26.173
		l4.783,17.848l11.952-3.199l-4.785-17.869c17.088-4.195,34.737-6.955,52.812-8.183l21.242,42.483l21.241-42.485
		c18.076,1.23,35.726,3.982,52.812,8.184l-4.79,17.869l11.948,3.2l4.791-17.848c22.198,6.42,43.395,15.218,63.242,26.172
		l-9.252,16.032l10.714,6.186l9.265-16.046c19.634,11.885,37.784,25.947,54.236,41.757l-13.012,13.02l8.743,8.75l13.021-13.019
		c15.803,16.453,29.872,34.595,41.754,54.229l-16.039,9.256l6.188,10.715l16.018-9.252c10.972,19.848,19.761,41.042,26.179,63.254
		l-17.855,4.784l3.2,11.95l17.876-4.788c4.194,17.094,6.947,34.743,8.175,52.818L551.709,339l42.484,21.241
		c-1.231,18.077-3.983,35.72-8.176,52.807l-17.877-4.791l-3.198,11.95l17.854,4.784c-6.418,22.212-15.208,43.398-26.17,63.25
		l-16.027-9.258l-6.184,10.718l16.045,9.264C538.573,518.599,524.513,536.75,508.695,553.194z"/>
	<path d="M333.122,259.388c-7.709-4.597-16.111-8.136-25.06-10.346l-22.312-95.597l-22.305,95.597
		c-14.042,3.474-26.846,10.073-37.554,19.132l-32.919-21.952l21.951,32.919c-9.057,10.708-15.666,23.508-19.139,37.554L100.195,339
		l95.589,22.305c2.21,8.949,5.757,17.358,10.354,25.062L100.195,524.556l138.188-105.937c7.71,4.597,16.113,8.143,25.058,10.354
		l22.31,95.579l22.312-95.593c14.04-3.48,26.839-10.08,37.541-19.138l32.927,21.951l-21.945-32.928
		c9.052-10.707,15.658-23.507,19.125-37.544L471.302,339L375.7,316.694c-2.203-8.95-5.75-17.36-10.346-25.062l105.94-138.183
		L333.122,259.388z M214.281,375.74c-5.679-11.016-8.938-23.487-8.938-36.74c0-44.407,35.999-80.407,80.407-80.407
		c13.255,0,25.717,3.26,36.74,8.938l-36.74,28.176c-23.914,0-43.293,19.379-43.293,43.293L214.281,375.74z M316.671,339
		c0,17.082-13.84,30.928-30.921,30.928S254.829,356.082,254.829,339s13.841-30.921,30.921-30.921
		C302.831,308.079,316.671,321.918,316.671,339z M366.159,339c0,44.401-36,80.409-80.409,80.409c-13.254,0-25.718-3.262-36.74-8.939
		l36.74-28.177c23.908,0,43.293-19.385,43.293-43.293l28.177-36.74C362.897,313.283,366.159,325.746,366.159,339z"/>
	<circle cx="285.75" cy="339.001" r="18.558"/>
</g>
</svg>
