<?xml version="1.0" encoding="utf-8"?>
<!-- Generator: Adobe Illustrator 16.0.0, SVG Export Plug-In . SVG Version: 6.00 Build 0)  -->
<!DOCTYPE svg PUBLIC "-//W3C//DTD SVG 1.1//EN" "http://www.w3.org/Graphics/SVG/1.1/DTD/svg11.dtd">
<svg version="1.1" id="Layer_1" xmlns="http://www.w3.org/2000/svg" xmlns:xlink="http://www.w3.org/1999/xlink" x="0px" y="0px"
	 width="362px" height="409px" viewBox="135.5 21.5 362 409" enable-background="new 135.5 21.5 362 409" xml:space="preserve">
<g>
	<g>
		<circle cx="320.001" cy="113.478" r="19.356"/>
		<path d="M320.001,138.834c-13.98,0-25.356-11.376-25.356-25.356s11.376-25.356,25.356-25.356c13.98,0,25.361,11.376,25.361,25.356
			S333.981,138.834,320.001,138.834z M320.001,100.122c-7.368,0-13.356,5.994-13.356,13.356s5.994,13.356,13.356,13.356
			c7.361,0,13.361-5.994,13.361-13.356S327.369,100.122,320.001,100.122z"/>
	</g>
	<g>
		<path d="M325.647,132.498l-5.646,1.98l-5.646-1.98L210.375,418.74l8.124,2.855l1.032,1.404l0.99-0.702l1.152,0.402l0.6-1.645
			l97.728-69.21l97.729,69.21l0.605,1.645l1.146-0.402l0.989,0.702l1.032-1.404l8.124-2.855L325.647,132.498z M341.493,229.488
			l-21.492,18.456l-21.492-18.456l21.492-24.798L341.493,229.488z M327.879,195.594l5.61-6.462l8.094,22.266L327.879,195.594z
			 M298.431,211.392l8.088-22.266l5.604,6.462L298.431,211.392z M310.881,255.779l-41.526,35.652l19.746-54.372L310.881,255.779z
			 M320.001,263.616l47.034,40.38l-47.034,33.312l-47.034-33.312L320.001,263.616z M329.121,255.779l21.786-18.707l19.746,54.371
			L329.121,255.779z M328.839,176.316l-8.838,10.188l-8.832-10.188l8.832-24.306L328.839,176.316z M229.383,401.478l32.874-90.521
			l47.472,33.624L229.383,401.478z M330.267,344.58l47.473-33.624l32.874,90.522L330.267,344.58z"/>
		<path d="M278.055,154.578l8.484-8.346c-8.364-8.22-12.972-19.152-12.972-30.78s4.608-22.572,12.972-30.798l-8.484-8.34
			c-10.632,10.446-16.488,24.354-16.488,39.132C261.573,130.236,267.423,144.126,278.055,154.578z"/>
		<path d="M259.677,172.626l8.484-8.346c-13.272-13.044-20.58-30.384-20.58-48.84s7.308-35.802,20.58-48.858l-8.484-8.346
			c-15.54,15.288-24.102,35.604-24.096,57.204C235.587,137.052,244.137,157.362,259.677,172.626z"/>
		<path d="M248.583,183.54c-38.19-37.554-38.19-98.646,0-136.2L240.099,39c-42.87,42.144-42.87,110.73,0,152.88L248.583,183.54z"/>
		<path d="M361.946,154.578c10.627-10.452,16.482-24.342,16.482-39.126c0-14.784-5.85-28.686-16.482-39.132l-8.483,8.34
			c8.376,8.226,12.966,19.164,12.966,30.798c0,11.628-4.607,22.56-12.966,30.78L361.946,154.578z"/>
		<path d="M371.847,164.286l8.484,8.346c15.54-15.27,24.096-35.58,24.096-57.174c0-21.606-8.556-41.916-24.096-57.204l-8.484,8.34
			c13.266,13.056,20.58,30.402,20.58,48.858C392.421,133.908,385.112,151.242,371.847,164.286z"/>
		<path d="M391.413,183.54l8.484,8.346c42.876-42.15,42.876-110.736,0-152.88l-8.484,8.34
			C429.621,84.888,429.621,145.986,391.413,183.54z"/>
	</g>
</g>
</svg>
