<svg xmlns="http://www.w3.org/2000/svg" xmlns:xlink="http://www.w3.org/1999/xlink" version="1.1" x="0px" y="0px" viewBox="0 0 100 100" enable-background="new 0 0 100 100" xml:space="preserve"><g><path d="M93.508,30.614c-2.075-2.125-6.327-2.919-9.858-1.079c-0.177-0.223-0.358-0.429-0.543-0.613   c-0.197-0.197-0.407-0.373-0.625-0.539c1.813-3.572,0.82-8.028-1.498-10.293c-2.045-1.997-4.814-2.114-7.227-0.305   c-0.662,0.497-0.797,1.438-0.3,2.101c0.498,0.663,1.438,0.796,2.101,0.3c1.247-0.938,2.337-0.919,3.329,0.051   c1.512,1.477,2.087,4.617,0.82,6.936c-0.493-0.092-1.012-0.142-1.56-0.142c-2.401,0-4.794,0.897-6.223,1.434l-0.3,0.112   c-1.289,0.478-2.521,0.98-3.703,1.506c-3.106-0.812-6.442-1.402-9.431-1.402c-3.808,0-6.619,0.947-8.356,2.815   c-1.467,1.578-2.112,3.736-1.917,6.417c0.197,2.696,1.322,4.637,3.253,5.719c-0.347,0.627-0.673,1.263-0.955,1.914   c-3.468,8.013-0.662,14.854-0.541,15.143l0.232,0.552l0.549,0.24c0.125,0.054,3.105,1.334,7.429,1.334   c3.051,0,6.562-0.614,10.141-2.485c0.018,0.036,0.03,0.075,0.049,0.111c0.741,1.441,2.356,3.214,5.839,3.468   c0.315,0.022,0.62,0.034,0.915,0.034c3.056,0,5.408-1.235,6.802-3.571c2.321-3.891,1.617-10.292,0.183-15.879   c0.706-1.479,1.389-3.067,2.042-4.782c1.226-3.22,1.295-5.65,0.826-7.472c2.312-1.245,5.109-0.828,6.382,0.474   c0.814,0.833,0.759,1.881-0.166,3.112c-0.497,0.663-0.362,1.604,0.3,2.101c0.271,0.202,0.586,0.3,0.899,0.3   c0.456,0,0.906-0.207,1.201-0.6C95.761,34.738,94.97,32.111,93.508,30.614z M79.354,58.833c-0.953,1.599-2.525,2.259-4.922,2.082   c-2.271-0.165-3.022-1.134-3.39-1.848c-0.051-0.099-0.079-0.217-0.123-0.322c-0.395-0.951-0.502-2.151-0.388-3.516   c0.078-0.943,0.25-1.954,0.51-3.018c0.417-1.703,1.037-3.518,1.752-5.319c0.533-1.341,1.116-2.67,1.715-3.941   c0.809-1.717,1.638-3.324,2.386-4.686l0.081,0.081c1.127,2.778,2.306,6.56,2.956,10.238C80.646,52.63,80.72,56.543,79.354,58.833z    M51.21,37.694c-0.134-1.841,0.232-3.2,1.121-4.156c1.147-1.233,3.22-1.858,6.16-1.858c1.633,0,3.399,0.2,5.176,0.522   c3.716,0.675,7.47,1.891,10.128,2.965l0.056,0.056c-1.245,0.682-2.87,1.532-4.683,2.389c-1.244,0.589-2.576,1.178-3.938,1.719   c-1.776,0.707-3.597,1.321-5.331,1.739c-1.172,0.282-2.3,0.469-3.349,0.529c-0.237,0.014-0.479,0.031-0.707,0.031   c-1.146,0-2.056-0.167-2.757-0.521C51.923,40.521,51.336,39.416,51.21,37.694z M71.421,39.864l0.825,0.825   c-0.592,1.208-1.195,2.521-1.768,3.889l-2.947-2.947C68.898,41.057,70.214,40.453,71.421,39.864z M62.341,43.511l6.267,6.268   c-0.467,1.592-0.821,3.172-0.989,4.667l-9.933-9.932C59.169,44.342,60.745,43.985,62.341,43.511z M60.155,59.711l-8.198-8.198   c0.181-1.398,0.551-2.907,1.19-4.467l11.587,11.587C63.151,59.225,61.61,59.56,60.155,59.711z M81.352,38.641   c-0.186,0.487-0.374,0.961-0.564,1.426c-0.787-2.304-1.593-4.218-2.178-5.388c-0.074-0.28-0.224-0.531-0.438-0.727   c-0.195-0.214-0.449-0.364-0.73-0.437c-1.188-0.601-2.924-1.333-4.974-2.049c0.068-0.025,0.133-0.053,0.201-0.078l0.31-0.116   c1.239-0.465,3.312-1.242,5.169-1.242c1.228,0,2.156,0.331,2.838,1.013C82.551,32.609,82.675,35.165,81.352,38.641z"></path><g><path d="M44.735,66.188c-0.575,0-1.125-0.333-1.372-0.893c-0.336-0.758,0.006-1.644,0.764-1.979    c1.37-0.607,2.185-1.014,2.202-1.022c0.742-0.37,1.643-0.068,2.012,0.671c0.371,0.74,0.071,1.642-0.669,2.013    c0,0-0.865,0.433-2.33,1.081C45.145,66.146,44.938,66.188,44.735,66.188z"></path><path d="M15.426,90.381c-0.628,0-1.213-0.396-1.423-1.024c-0.263-0.785,0.161-1.636,0.947-1.898    c1.608-0.538,3.113-1.157,4.474-1.841c0.738-0.374,1.643-0.075,2.014,0.666c0.372,0.74,0.074,1.642-0.666,2.014    c-1.488,0.748-3.126,1.423-4.87,2.007C15.744,90.356,15.583,90.381,15.426,90.381z M24.344,85.732    c-0.425,0-0.846-0.179-1.143-0.527c-0.537-0.63-0.462-1.577,0.169-2.114c0.206-0.176,0.401-0.353,0.585-0.531    c0.997-0.971,1.938-1.957,2.794-2.93c0.545-0.622,1.495-0.684,2.116-0.136c0.622,0.547,0.684,1.494,0.136,2.116    c-0.906,1.032-1.901,2.075-2.955,3.101c-0.229,0.223-0.474,0.444-0.73,0.663C25.033,85.614,24.688,85.732,24.344,85.732z     M30.98,78.137c-0.291,0-0.584-0.084-0.843-0.26c-0.685-0.466-0.862-1.398-0.396-2.084c0.953-1.402,1.744-2.803,2.35-4.163    c0.337-0.759,1.228-1.1,1.979-0.761c0.758,0.337,1.098,1.223,0.761,1.979c-0.678,1.523-1.556,3.082-2.609,4.632    C31.932,77.907,31.46,78.137,30.98,78.137z M25.379,71.772c-0.771,0-1.427-0.591-1.493-1.374    c-0.069-0.825,0.543-1.551,1.369-1.621c1.486-0.125,3.104-0.373,4.808-0.737c0.806-0.171,1.607,0.343,1.78,1.153    s-0.343,1.607-1.153,1.78c-1.827,0.391-3.57,0.657-5.183,0.794C25.464,71.771,25.422,71.772,25.379,71.772z M20.336,71.707    c-0.065,0-0.132-0.004-0.198-0.013c-2.06-0.272-3.858-0.86-5.347-1.749c-0.712-0.425-0.944-1.346-0.52-2.057    c0.426-0.713,1.347-0.943,2.057-0.52c1.136,0.678,2.55,1.133,4.202,1.351c0.821,0.108,1.399,0.862,1.291,1.684    C21.722,71.158,21.077,71.707,20.336,71.707z M35.267,69.73c-0.643,0-1.237-0.417-1.435-1.063c-0.03-0.1-0.05-0.2-0.059-0.3    c-0.26-0.32-0.387-0.745-0.315-1.185c0.12-0.744,0.181-1.484,0.181-2.2c0-0.782-0.073-1.558-0.217-2.304    c-0.157-0.813,0.375-1.601,1.188-1.757c0.807-0.156,1.6,0.374,1.757,1.188c0.181,0.934,0.271,1.899,0.271,2.872    c0,0.413-0.017,0.832-0.049,1.253c0.966-0.32,1.948-0.668,2.938-1.04c0.772-0.291,1.639,0.102,1.932,0.877    c0.291,0.775-0.102,1.641-0.877,1.932c-1.656,0.622-3.298,1.182-4.878,1.662C35.559,69.71,35.411,69.73,35.267,69.73z     M12.181,66.5c-0.551,0-1.081-0.305-1.344-0.831c-0.697-1.4-1.146-3.044-1.329-4.884c-0.02-0.186-0.035-0.373-0.047-0.558    c-0.054-0.826,0.573-1.54,1.4-1.594c0.838-0.059,1.54,0.573,1.594,1.4c0.01,0.147,0.021,0.296,0.037,0.448    c0.148,1.48,0.495,2.774,1.03,3.849c0.369,0.741,0.067,1.642-0.674,2.012C12.634,66.449,12.405,66.5,12.181,66.5z M33.009,59.24    c-0.489,0-0.97-0.239-1.258-0.681c-0.805-1.234-1.845-2.341-3.093-3.289c-0.66-0.501-0.788-1.441-0.287-2.102    s1.441-0.789,2.102-0.287c1.522,1.156,2.799,2.516,3.792,4.039c0.452,0.694,0.256,1.624-0.438,2.076    C33.574,59.162,33.29,59.24,33.009,59.24z M11.763,56.698c-0.215,0-0.434-0.046-0.641-0.145c-0.749-0.354-1.068-1.248-0.714-1.997    c0.869-1.837,2.327-3.289,4.217-4.2c0.744-0.361,1.643-0.047,2.002,0.699c0.36,0.746,0.047,1.643-0.699,2.003    c-1.282,0.618-2.228,1.554-2.809,2.781C12.863,56.382,12.324,56.698,11.763,56.698z M25.136,53.179    c-0.169,0-0.341-0.028-0.509-0.089c-1.474-0.531-3.018-0.827-4.467-0.855c-0.828-0.017-1.486-0.701-1.47-1.53    c0.017-0.828,0.696-1.437,1.53-1.47c1.771,0.035,3.646,0.393,5.424,1.033c0.779,0.281,1.184,1.141,0.902,1.92    C26.326,52.799,25.75,53.179,25.136,53.179z"></path><path d="M7.998,92.136c-0.734,0-1.376-0.54-1.483-1.288c-0.117-0.82,0.453-1.58,1.273-1.697c0.783-0.111,1.583-0.25,2.377-0.412    c0.812-0.164,1.604,0.357,1.77,1.17c0.165,0.812-0.358,1.604-1.17,1.77C9.913,91.852,9.054,92,8.212,92.121    C8.141,92.131,8.068,92.136,7.998,92.136z"></path></g></g></svg>