<?xml version="1.0" encoding="utf-8"?>
<!-- Generator: Adobe Illustrator 16.0.0, SVG Export Plug-In . SVG Version: 6.00 Build 0)  -->
<!DOCTYPE svg PUBLIC "-//W3C//DTD SVG 1.1//EN" "http://www.w3.org/Graphics/SVG/1.1/DTD/svg11.dtd">
<svg version="1.1" id="Layer_1" xmlns="http://www.w3.org/2000/svg" xmlns:xlink="http://www.w3.org/1999/xlink" x="0px" y="0px"
	 width="476px" height="381.5px" viewBox="82.5 0 476 381.5" enable-background="new 82.5 0 476 381.5" xml:space="preserve">
<g>
	<path d="M528.839,70.947c-9.96-10.2-30.37-14.011-47.319-5.179c-0.85-1.07-1.718-2.059-2.605-2.942
		c-0.946-0.946-1.954-1.791-3-2.587c8.702-17.146,3.936-38.534-7.19-49.406c-9.816-9.585-23.107-10.147-34.69-1.464
		c-3.177,2.385-3.825,6.902-1.439,10.084c2.391,3.183,6.902,3.821,10.085,1.44c5.985-4.502,11.218-4.411,15.979,0.245
		c7.258,7.089,10.018,22.162,3.937,33.293c-2.366-0.442-4.857-0.682-7.488-0.682c-11.524,0-23.011,4.305-29.87,6.883l-1.44,0.538
		c-6.187,2.294-12.101,4.704-17.774,7.229c-14.909-3.897-30.921-6.729-45.269-6.729c-18.278,0-31.771,4.545-40.109,13.512
		c-7.041,7.575-10.137,17.933-9.201,30.802c0.946,12.941,6.346,22.258,15.615,27.451c-1.666,3.01-3.23,6.062-4.584,9.188
		c-16.647,38.462-3.178,71.299-2.598,72.686l1.113,2.65l2.636,1.152c0.601,0.259,14.903,6.402,35.659,6.402
		c14.645,0,31.498-2.947,48.677-11.928c0.087,0.173,0.144,0.359,0.235,0.533c3.557,6.916,11.309,15.427,28.027,16.646
		c1.512,0.105,2.976,0.163,4.392,0.163c14.669,0,25.958-5.929,32.649-17.142c11.141-18.676,7.762-49.401,0.879-76.219
		c3.389-7.099,6.667-14.722,9.802-22.954c5.885-15.456,6.216-27.12,3.965-35.866c11.097-5.976,24.522-3.974,30.633,2.275
		c3.907,3.999,3.644,9.029-0.797,14.938c-2.385,3.183-1.737,7.699,1.44,10.085c1.301,0.97,2.812,1.44,4.315,1.44
		c2.188,0,4.349-0.994,5.765-2.88C539.652,90.742,535.856,78.133,528.839,70.947z M460.899,206.398
		c-4.574,7.676-12.12,10.844-23.626,9.994c-10.9-0.793-14.506-5.443-16.271-8.871c-0.245-0.475-0.38-1.041-0.591-1.545
		c-1.896-4.565-2.409-10.325-1.862-16.877c0.374-4.527,1.2-9.379,2.448-14.486c2.001-8.175,4.978-16.887,8.409-25.532
		c2.559-6.437,5.357-12.816,8.232-18.917c3.883-8.242,7.862-15.956,11.452-22.493l0.39,0.389
		c5.409,13.334,11.068,31.488,14.188,49.142C467.101,176.624,467.456,195.406,460.899,206.398z M325.809,104.931
		c-0.644-8.837,1.113-15.36,5.381-19.949c5.505-5.918,15.455-8.918,29.567-8.918c7.839,0,16.315,0.96,24.845,2.506
		c17.837,3.24,35.856,9.077,48.614,14.232l0.269,0.269c-5.976,3.274-13.775,7.354-22.478,11.467
		c-5.972,2.827-12.365,5.654-18.903,8.251c-8.524,3.394-17.266,6.341-25.588,8.347c-5.626,1.354-11.041,2.251-16.076,2.539
		c-1.137,0.067-2.299,0.149-3.393,0.149c-5.502,0-9.869-0.802-13.234-2.501C329.23,118.501,326.412,113.197,325.809,104.931z
		 M422.82,115.347l3.961,3.96c-2.842,5.798-5.736,12.101-8.487,18.667l-14.146-14.146
		C410.71,121.074,417.027,118.174,422.82,115.347z M379.236,132.853l30.082,30.086c-2.241,7.642-3.94,15.226-4.747,22.401
		l-47.679-47.674C364.012,136.842,371.576,135.128,379.236,132.853z M368.744,210.613l-39.351-39.352
		c0.868-6.71,2.646-13.953,5.712-21.441l55.617,55.618C383.125,208.279,375.729,209.889,368.744,210.613z M470.489,109.477
		c-0.893,2.338-1.795,4.613-2.707,6.845c-3.777-11.06-7.646-20.247-10.454-25.863c-0.355-1.344-1.075-2.549-2.103-3.489
		c-0.937-1.027-2.155-1.747-3.504-2.098c-5.702-2.885-14.035-6.398-23.875-9.835c0.326-0.12,0.638-0.254,0.965-0.374l1.487-0.557
		c5.947-2.232,15.897-5.961,24.812-5.961c5.895,0,10.349,1.589,13.622,4.862C476.245,80.523,476.84,92.792,470.489,109.477z"/>
	<g>
		<path d="M294.728,241.702c-2.76,0-5.4-1.598-6.585-4.286c-1.613-3.639,0.029-7.891,3.667-9.499
			c6.576-2.913,10.488-4.867,10.57-4.905c3.562-1.776,7.886-0.326,9.657,3.221c1.781,3.552,0.341,7.881-3.211,9.662
			c0,0-4.152,2.078-11.184,5.188C296.696,241.501,295.702,241.702,294.728,241.702z"/>
		<path d="M154.045,357.829c-3.015,0-5.823-1.901-6.831-4.915c-1.262-3.769,0.773-7.854,4.545-9.111
			c7.719-2.582,14.942-5.553,21.476-8.836c3.542-1.796,7.886-0.36,9.667,3.196c1.786,3.552,0.355,7.882-3.197,9.667
			c-7.143,3.591-15.005,6.831-23.376,9.634C155.571,357.709,154.798,357.829,154.045,357.829z M196.851,335.514
			c-2.04,0-4.061-0.859-5.486-2.529c-2.578-3.024-2.218-7.57,0.811-10.147c0.989-0.845,1.925-1.694,2.808-2.549
			c4.786-4.661,9.302-9.394,13.411-14.064c2.616-2.985,7.176-3.283,10.157-0.652c2.986,2.626,3.283,7.171,0.653,10.157
			c-4.349,4.953-9.125,9.96-14.184,14.885c-1.1,1.07-2.275,2.131-3.504,3.182C200.158,334.947,198.502,335.514,196.851,335.514z
			 M228.704,299.058c-1.397,0-2.803-0.403-4.046-1.248c-3.288-2.236-4.138-6.71-1.901-10.003c4.574-6.729,8.371-13.455,11.28-19.982
			c1.618-3.644,5.895-5.28,9.5-3.653c3.638,1.618,5.27,5.871,3.653,9.499c-3.254,7.311-7.469,14.794-12.523,22.234
			C233.273,297.953,231.008,299.058,228.704,299.058z M201.819,268.506c-3.701,0-6.85-2.837-7.167-6.596
			c-0.331-3.96,2.606-7.444,6.571-7.78c7.133-0.601,14.899-1.791,23.078-3.538c3.869-0.82,7.714,1.646,8.544,5.534
			c0.831,3.889-1.646,7.714-5.534,8.544c-8.77,1.877-17.136,3.154-24.878,3.812C202.227,268.501,202.025,268.506,201.819,268.506z
			 M177.613,268.193c-0.312,0-0.634-0.019-0.95-0.062c-9.888-1.306-18.519-4.128-25.666-8.395c-3.417-2.04-4.531-6.461-2.496-9.874
			c2.044-3.422,6.465-4.526,9.874-2.496c5.453,3.255,12.24,5.438,20.169,6.485c3.941,0.518,6.715,4.138,6.197,8.083
			C184.266,265.559,181.169,268.193,177.613,268.193z M249.282,258.704c-3.086,0-5.938-2.002-6.888-5.103
			c-0.144-0.479-0.24-0.96-0.283-1.44c-1.248-1.535-1.857-3.575-1.512-5.688c0.576-3.571,0.869-7.123,0.869-10.56
			c0-3.754-0.351-7.479-1.042-11.06c-0.754-3.902,1.8-7.685,5.702-8.434c3.874-0.749,7.68,1.795,8.434,5.702
			c0.869,4.483,1.301,9.115,1.301,13.786c0,1.982-0.082,3.993-0.235,6.014c4.637-1.536,9.351-3.206,14.103-4.991
			c3.706-1.397,7.867,0.489,9.274,4.209c1.396,3.72-0.49,7.877-4.21,9.273c-7.949,2.986-15.83,5.674-23.414,7.978
			C250.683,258.608,249.973,258.704,249.282,258.704z M138.469,243.2c-2.645,0-5.189-1.464-6.451-3.989
			c-3.346-6.72-5.501-14.611-6.379-23.443c-0.096-0.893-0.168-1.79-0.226-2.678c-0.259-3.965,2.75-7.393,6.72-7.651
			c4.022-0.283,7.392,2.751,7.651,6.72c0.048,0.706,0.101,1.421,0.177,2.15c0.71,7.104,2.376,13.315,4.944,18.476
			c1.771,3.557,0.321,7.882-3.235,9.657C140.643,242.955,139.544,243.2,138.469,243.2z M238.443,208.352
			c-2.347,0-4.656-1.146-6.039-3.269c-3.864-5.923-8.856-11.236-14.846-15.787c-3.168-2.405-3.783-6.917-1.378-10.089
			c2.405-3.174,6.917-3.788,10.09-1.379c7.306,5.549,13.435,12.078,18.202,19.388c2.169,3.331,1.229,7.796-2.103,9.965
			C241.155,207.978,239.792,208.352,238.443,208.352z M136.462,196.15c-1.032,0-2.083-0.221-3.077-0.695
			c-3.595-1.699-5.126-5.991-3.427-9.586c4.171-8.818,11.169-15.787,20.242-20.16c3.571-1.733,7.886-0.226,9.609,3.355
			c1.728,3.58,0.226,7.886-3.355,9.613c-6.154,2.967-10.695,7.46-13.483,13.35C141.742,194.634,139.155,196.15,136.462,196.15z
			 M200.653,179.26c-0.811,0-1.637-0.135-2.443-0.428c-7.075-2.549-14.486-3.97-21.441-4.104c-3.975-0.082-7.133-3.365-7.056-7.345
			c0.082-3.974,3.341-6.897,7.344-7.056c8.5,0.168,17.5,1.886,26.035,4.959c3.739,1.348,5.683,5.477,4.33,9.215
			C206.365,177.436,203.6,179.26,200.653,179.26z"/>
		<path d="M118.391,366.253c-3.523,0-6.605-2.592-7.119-6.183c-0.562-3.936,2.174-7.584,6.11-8.146
			c3.758-0.533,7.599-1.2,11.41-1.978c3.897-0.787,7.699,1.714,8.496,5.616c0.792,3.897-1.718,7.699-5.616,8.496
			c-4.089,0.83-8.213,1.54-12.254,2.121C119.077,366.229,118.727,366.253,118.391,366.253z"/>
	</g>
</g>
</svg>
