<?xml version="1.0" encoding="utf-8"?>
<!-- Generator: Adobe Illustrator 16.0.0, SVG Export Plug-In . SVG Version: 6.00 Build 0)  -->
<!DOCTYPE svg PUBLIC "-//W3C//DTD SVG 1.1//EN" "http://www.w3.org/Graphics/SVG/1.1/DTD/svg11.dtd">
<svg version="1.1" id="Layer_1" xmlns="http://www.w3.org/2000/svg" xmlns:xlink="http://www.w3.org/1999/xlink" x="0px" y="0px"
	 width="476px" height="381.5px" viewBox="82.5 0 476 381.5" enable-background="new 82.5 0 476 381.5" xml:space="preserve">
<g>
	<path d="M449.362,85.947c-6.363-6.517-19.402-8.951-30.23-3.309c-0.543-0.684-1.098-1.315-1.665-1.88
		c-0.604-0.604-1.248-1.144-1.916-1.653c5.56-10.954,2.514-24.619-4.594-31.564c-6.271-6.124-14.763-6.483-22.163-0.935
		c-2.029,1.524-2.443,4.41-0.919,6.443c1.526,2.033,4.409,2.441,6.442,0.92c3.824-2.876,7.167-2.818,10.208,0.156
		c4.637,4.529,6.4,14.159,2.516,21.27c-1.512-0.282-3.104-0.436-4.784-0.436c-7.363,0-14.701,2.75-19.083,4.397l-0.921,0.344
		c-3.952,1.466-7.73,3.005-11.355,4.618c-9.524-2.49-19.754-4.299-28.92-4.299c-11.678,0-20.298,2.904-25.625,8.632
		c-4.498,4.839-6.477,11.457-5.878,19.678c0.604,8.268,4.054,14.22,9.976,17.538c-1.064,1.923-2.063,3.873-2.929,5.87
		c-10.635,24.572-2.03,45.551-1.659,46.437l0.711,1.693l1.684,0.736c0.384,0.165,9.521,4.09,22.782,4.09
		c9.355,0,20.123-1.883,31.098-7.621c0.056,0.11,0.092,0.23,0.15,0.341c2.272,4.418,7.225,9.855,17.906,10.635
		c0.966,0.067,1.9,0.104,2.806,0.104c9.371,0,16.583-3.788,20.858-10.952c7.117-11.931,4.959-31.561,0.562-48.693
		c2.165-4.536,4.259-9.405,6.262-14.665c3.76-9.875,3.971-17.326,2.533-22.914c7.089-3.818,15.666-2.539,19.57,1.454
		c2.496,2.554,2.328,5.768-0.509,9.543c-1.524,2.033-1.11,4.919,0.92,6.443c0.831,0.62,1.797,0.92,2.757,0.92
		c1.398,0,2.778-0.635,3.683-1.84C456.271,98.593,453.846,90.538,449.362,85.947z M405.958,172.482
		c-2.922,4.904-7.743,6.928-15.094,6.385c-6.964-0.507-9.268-3.478-10.396-5.667c-0.156-0.303-0.242-0.665-0.377-0.987
		c-1.211-2.917-1.539-6.597-1.19-10.782c0.239-2.893,0.768-5.992,1.564-9.255c1.278-5.223,3.18-10.789,5.372-16.312
		c1.635-4.112,3.423-8.188,5.26-12.085c2.48-5.266,5.022-10.193,7.316-14.37l0.249,0.249c3.455,8.519,7.071,20.117,9.064,31.395
		C409.92,153.46,410.146,165.46,405.958,172.482z M319.653,107.658c-0.411-5.646,0.711-9.813,3.438-12.745
		c3.517-3.781,9.873-5.698,18.89-5.698c5.008,0,10.423,0.613,15.872,1.601c11.396,2.07,22.908,5.799,31.059,9.093l0.171,0.171
		c-3.817,2.092-8.8,4.698-14.359,7.326c-3.815,1.806-7.9,3.612-12.077,5.271c-5.446,2.168-11.03,4.051-16.348,5.333
		c-3.594,0.865-7.054,1.438-10.271,1.623c-0.726,0.042-1.469,0.095-2.167,0.095c-3.516,0-6.305-0.512-8.455-1.598
		C321.839,116.327,320.038,112.938,319.653,107.658z M381.631,114.312l2.53,2.53c-1.815,3.705-3.665,7.731-5.422,11.926
		l-9.037-9.038C373.894,117.971,377.93,116.119,381.631,114.312z M353.786,125.497l19.219,19.221
		c-1.432,4.882-2.518,9.727-3.033,14.312l-30.46-30.458C344.06,128.045,348.893,126.95,353.786,125.497z M347.083,175.175
		l-25.14-25.14c0.555-4.287,1.69-8.915,3.649-13.698l35.531,35.533C356.271,173.684,351.545,174.712,347.083,175.175z
		 M412.085,110.562c-0.57,1.494-1.146,2.947-1.729,4.373c-2.413-7.065-4.886-12.935-6.679-16.523
		c-0.228-0.858-0.688-1.628-1.344-2.229c-0.598-0.656-1.377-1.116-2.238-1.34c-3.643-1.843-8.967-4.087-15.253-6.283
		c0.208-0.077,0.407-0.163,0.616-0.239l0.95-0.356c3.8-1.426,10.156-3.809,15.852-3.809c3.766,0,6.611,1.015,8.702,3.106
		C415.762,92.065,416.142,99.903,412.085,110.562z"/>
	<g>
		<path d="M299.797,195.037c-1.764,0-3.45-1.021-4.208-2.738c-1.03-2.325,0.019-5.041,2.343-6.068
			c4.202-1.861,6.701-3.11,6.753-3.134c2.275-1.135,5.038-0.208,6.17,2.058c1.138,2.27,0.218,5.035-2.052,6.173
			c0,0-2.652,1.328-7.145,3.315C301.054,194.908,300.419,195.037,299.797,195.037z"/>
		<path d="M209.918,269.227c-1.926,0-3.72-1.215-4.364-3.14c-0.806-2.408,0.494-5.018,2.904-5.821
			c4.932-1.649,9.546-3.548,13.72-5.646c2.263-1.146,5.038-0.23,6.176,2.043c1.141,2.269,0.228,5.035-2.042,6.176
			c-4.563,2.293-9.586,4.363-14.934,6.154C210.894,269.149,210.4,269.227,209.918,269.227z M237.266,254.97
			c-1.303,0-2.594-0.549-3.505-1.615c-1.647-1.933-1.417-4.837,0.518-6.483c0.632-0.539,1.229-1.082,1.794-1.629
			c3.058-2.978,5.943-6.001,8.568-8.985c1.671-1.907,4.584-2.098,6.488-0.417c1.907,1.677,2.098,4.581,0.417,6.489
			c-2.778,3.164-5.829,6.363-9.062,9.509c-0.702,0.684-1.453,1.361-2.238,2.033C239.379,254.608,238.321,254.97,237.266,254.97z
			 M257.616,231.679c-0.893,0-1.791-0.258-2.585-0.797c-2.101-1.429-2.644-4.287-1.215-6.391c2.923-4.299,5.348-8.596,7.206-12.766
			c1.034-2.328,3.766-3.374,6.069-2.334c2.324,1.034,3.367,3.751,2.334,6.069c-2.079,4.67-4.772,9.451-8.001,14.205
			C260.535,230.974,259.088,231.679,257.616,231.679z M240.44,212.161c-2.365,0-4.376-1.812-4.579-4.214
			c-0.211-2.53,1.665-4.756,4.198-4.97c4.558-0.384,9.519-1.145,14.744-2.261c2.472-0.524,4.928,1.052,5.459,3.536
			c0.53,2.484-1.052,4.928-3.536,5.458c-5.603,1.199-10.948,2.015-15.894,2.435C240.7,212.158,240.572,212.161,240.44,212.161z
			 M224.976,211.961c-0.2,0-0.405-0.012-0.607-0.04c-6.317-0.834-11.831-2.637-16.397-5.363c-2.184-1.303-2.895-4.127-1.594-6.308
			c1.306-2.186,4.13-2.892,6.308-1.595c3.483,2.08,7.82,3.475,12.886,4.143c2.518,0.331,4.29,2.644,3.959,5.164
			C229.226,210.278,227.248,211.961,224.976,211.961z M270.763,205.898c-1.972,0-3.794-1.279-4.401-3.26
			c-0.092-0.306-0.152-0.613-0.181-0.92c-0.797-0.981-1.187-2.284-0.966-3.634c0.368-2.282,0.555-4.551,0.555-6.746
			c0-2.398-0.224-4.778-0.665-7.065c-0.481-2.493,1.15-4.91,3.643-5.388c2.475-0.479,4.907,1.147,5.389,3.643
			c0.555,2.864,0.831,5.823,0.831,8.808c0,1.266-0.053,2.551-0.15,3.842c2.962-0.981,5.974-2.048,9.01-3.189
			c2.367-0.893,5.025,0.313,5.925,2.689c0.892,2.376-0.313,5.033-2.69,5.925c-5.078,1.908-10.113,3.625-14.958,5.097
			C271.657,205.837,271.204,205.898,270.763,205.898z M199.967,195.994c-1.689,0-3.315-0.935-4.121-2.548
			c-2.138-4.293-3.515-9.335-4.076-14.978c-0.061-0.57-0.107-1.144-0.144-1.71c-0.166-2.533,1.757-4.723,4.293-4.888
			c2.569-0.181,4.722,1.757,4.888,4.293c0.03,0.451,0.064,0.908,0.113,1.374c0.454,4.539,1.518,8.507,3.159,11.804
			c1.131,2.272,0.205,5.035-2.067,6.169C201.356,195.837,200.654,195.994,199.967,195.994z M263.838,173.73
			c-1.499,0-2.975-0.732-3.857-2.088c-2.469-3.784-5.658-7.179-9.485-10.086c-2.023-1.537-2.416-4.419-0.88-6.446
			c1.536-2.027,4.419-2.42,6.446-0.881c4.667,3.545,8.583,7.716,11.628,12.386c1.386,2.128,0.785,4.98-1.343,6.366
			C265.57,173.491,264.699,173.73,263.838,173.73z M198.686,165.935c-0.659,0-1.331-0.141-1.965-0.444
			c-2.297-1.085-3.275-3.828-2.189-6.124c2.665-5.634,7.136-10.086,12.932-12.879c2.281-1.107,5.038-0.145,6.139,2.144
			c1.104,2.287,0.144,5.038-2.144,6.142c-3.932,1.896-6.833,4.766-8.614,8.528C202.059,164.966,200.406,165.935,198.686,165.935z
			 M239.695,155.144c-0.519,0-1.046-0.086-1.562-0.273c-4.52-1.628-9.255-2.536-13.698-2.622c-2.539-0.053-4.557-2.15-4.508-4.692
			c0.052-2.539,2.134-4.407,4.692-4.508c5.431,0.107,11.181,1.205,16.633,3.168c2.389,0.861,3.631,3.499,2.766,5.887
			C243.344,153.979,241.578,155.144,239.695,155.144z"/>
		<path d="M187.14,274.608c-2.251,0-4.22-1.656-4.548-3.95c-0.359-2.515,1.389-4.845,3.904-5.204
			c2.401-0.34,4.854-0.767,7.289-1.264c2.49-0.502,4.919,1.096,5.428,3.588c0.506,2.49-1.098,4.92-3.588,5.429
			c-2.612,0.53-5.247,0.983-7.829,1.354C187.579,274.593,187.355,274.608,187.14,274.608z"/>
	</g>
</g>
</svg>
