<svg xmlns="http://www.w3.org/2000/svg" xmlns:xlink="http://www.w3.org/1999/xlink" version="1.1" x="0px" y="0px" viewBox="0 0 100 100" enable-background="new 0 0 100 100" xml:space="preserve"><path d="M90.55,83.7L57.017,50.167l19.31-19.31l8.35-12.812l-0.024-0.024c1.624,0.219,3.588-0.482,5.137-2.03  c2.271-2.272,2.771-5.458,1.113-7.115c-1.656-1.657-4.842-1.158-7.115,1.114c-1.548,1.548-2.25,3.512-2.03,5.136l-0.026-0.027  l-12.364,8.798l-19.31,19.31l-19.31-19.31l-12.657-8.249c0.357-1.676-0.343-3.792-1.986-5.436C13.83,7.94,10.644,7.441,8.987,9.099  c-1.657,1.657-1.158,4.843,1.114,7.115c1.548,1.549,3.512,2.25,5.136,2.03l-0.25,0.25l8.798,12.363l19.31,19.31L9.562,83.7  c-1.922,1.922-1.922,5.039,0,6.961c1.923,1.922,5.039,1.922,6.961,0l33.533-33.533l33.533,33.533c1.922,1.922,5.039,1.922,6.961,0  S92.472,85.622,90.55,83.7z"></path></svg>