
<svg width="98px" height="99px" viewBox="1 0 98 99" version="1.1" xmlns="http://www.w3.org/2000/svg" xmlns:xlink="http://www.w3.org/1999/xlink">
    <defs></defs>
    <g id="noun_813579_cc" stroke="none" stroke-width="1" fill="none" fill-rule="evenodd" transform="translate(1.000000, 0.000000)">
        <path d="M71.7,43.88 C76.1130169,44.9250084 80.7209294,43.2081398 83.374245,39.5302767 C86.0275605,35.8524136 86.2035034,30.9381954 83.82,27.08 L71,6.32 C68.200162,1.78213947 62.5913676,-0.15555844 57.5874916,1.68631445 C52.5836156,3.52818735 49.5696127,8.63984407 50.38,13.91 L36.27,22.62 C31.9261073,19.5932839 26.0568732,20.0183497 22.1944291,23.6393911 C18.331985,27.2604324 17.5295362,33.0900692 20.27,37.62 L33.06,58.41 L33.06,58.41 C35.859838,62.9478605 41.4686324,64.8855584 46.4725084,63.0436855 C51.4763844,61.2018127 54.4903873,56.0901559 53.68,50.82 L67.79,42.11 C68.9671677,42.9463253 70.2948308,43.547339 71.7,43.88 L71.7,43.88 Z M43.86,54.57 C42.7300661,55.2654848 41.2505068,54.9168273 40.55,53.79 L40.55,53.79 L27.74,33 C27.1088021,31.8868607 27.4576138,30.4744947 28.5344549,29.7831893 C29.6112959,29.0918839 31.0406686,29.3626995 31.79,30.4 L31.79,30.4 L31.79,30.4 L44.65,51.26 C45.3436787,52.3925343 44.9903791,53.8728148 43.86,54.57 L43.86,54.57 Z M60.21,10.16 C61.3399339,9.46451524 62.8194932,9.81317272 63.52,10.94 L76.33,31.71 C76.8438263,32.5369965 76.807113,33.5924745 76.2370662,34.38177 C75.6670195,35.1710656 74.6766074,35.5377612 73.73,35.31 C73.1352997,35.1772589 72.615409,34.8187135 72.28,34.31 L72.28,34.31 L72.28,34.31 L59.42,13.47 C58.7263213,12.3374657 59.0796209,10.8571852 60.21,10.16 L60.21,10.16 Z M96.55,85.94 C98.3999596,89.8007332 97.3189205,94.4284122 93.95,97.07 C93.68981,97.270472 93.4194507,97.4573871 93.14,97.63 C91.0789342,98.9002352 88.5970169,99.2978098 86.2423073,98.734931 C83.8875978,98.1720522 81.8537931,96.6950222 80.59,94.63 C80.3366422,94.2178997 80.1159667,93.7865795 79.93,93.34 C78.4008049,89.4441096 76.56505,85.6756292 74.44,82.07 L58.63,54.19 L59.48,53.71 L59.48,53.71 L68.95,47.93 L68.95,47.93 L69.76,47.38 L87.22,73.38 C89.3798315,77.0388685 91.9351657,80.4493342 94.84,83.55 C95.5354512,84.248989 96.1129469,85.056132 96.55,85.94 L96.55,85.94 Z M13,59.17 L3.41,58.95 L3.41,58.95 C2.63371585,58.9316827 1.89669729,58.6049232 1.36188317,58.041961 C0.827069062,57.4789988 0.538509943,56.7262028 0.56,55.95 L0.56,54.46 C0.603621575,52.8455462 1.94543214,51.5708261 3.56,51.61 L13.15,51.83 C13.9262841,51.8483173 14.6633027,52.1750768 15.1981168,52.738039 C15.7329309,53.3010012 16.0214901,54.0537972 16,54.83 L16,56.32 C15.9816827,57.0962841 15.6549232,57.8333027 15.091961,58.3681168 C14.5289988,58.9029309 13.7762028,59.1914901 13,59.17 L13,59.17 Z M10,38.17 L18.38,42.85 C19.0641494,43.2268692 19.5687906,43.8621266 19.781136,44.6137916 C19.9934814,45.3654566 19.8958275,46.1708623 19.51,46.85 L18.79,48.15 C18.4111751,48.8321173 17.7759282,49.3349642 17.0250636,49.5470835 C16.2741989,49.7592027 15.469741,49.6630724 14.79,49.28 L6.38,44.59 C5.69959239,44.2094743 5.19888478,43.5734814 4.98868507,42.8227682 C4.77848536,42.0720549 4.87612641,41.2685244 5.26,40.59 L6,39.31 C6.38052567,38.6295924 7.01651857,38.1288848 7.76723182,37.9186851 C8.51794507,37.7084854 9.3214756,37.8061264 10,38.19 L10,38.17 Z M7.79,73 C6.70566947,72.9736157 5.72462562,72.3503643 5.24,71.38 L4.57,70 C3.86122952,68.5608616 4.44616739,66.8194435 5.88,66.1 L14.47,61.81 C15.1634247,61.463196 15.9663051,61.4064031 16.7016441,61.6521414 C17.4369831,61.8978797 18.0444043,62.4259724 18.39,63.12 L19.06,64.45 C19.7763043,65.894533 19.1908723,67.6463602 17.75,68.37 L9.16,72.66 C8.73830661,72.8844399 8.26769975,73.0012328 7.79,73 Z M62.69,85 L62.69,92.1 C62.69,93.1051705 62.2906976,94.0691718 61.5799347,94.7799347 C60.8691718,95.4906976 59.9051705,95.89 58.9,95.89 L10.73,95.89 C8.6368408,95.89 6.94,94.1931592 6.94,92.1 L6.94,84.93 C6.94,82.8368408 8.6368408,81.14 10.73,81.14 L16.8,81.14 C16.8,77.0641385 20.1041385,73.76 24.18,73.76 L45.45,73.76 C47.4072977,73.76 49.2844296,74.5375335 50.668448,75.921552 C52.0524665,77.3055704 52.83,79.1827023 52.83,81.14 L58.9,81.14 C60.9931592,81.14 62.69,82.8368408 62.69,84.93 L62.69,85 Z" id="Shape" fill="#000000"></path>
    </g>
</svg>
